<?xml version="1.0" encoding="UTF-8"?>
<svg version="1.1" viewBox="0 0 2000 1247" xmlns="http://www.w3.org/2000/svg">
<g transform="translate(-1.2121 .50486)">
<svg width="2e3" height="1247" data-background-color="#FFFFFF" viewBox="0 0 396 247" xmlns="http://www.w3.org/2000/svg" xmlns:xlink="http://www.w3.org/1999/xlink">
<g transform="translate(.24 -.1)">
<svg width="395.52" height="247.2" viewBox="0 0 395.52 247.2">
<svg/>
<svg width="395.52" height="247.2" viewBox="0 0 395.52 247.2">
<g transform="translate(39.552 82.55)">
<svg width="316.42" height="82.099" viewBox="0 0 316.416 82.09937701679289">
<svg width="316.42" height="82.099" viewBox="0 0 316.416 82.09937701679289">
<svg width="316.42" height="82.099" viewBox="0 0 316.416 82.09937701679289">
<svg width="316.42" height="82.099" viewBox="0 0 316.416 82.09937701679289">
<svg width="316.42" height="82.099" viewBox="0 0 316.416 82.09937701679289">
<svg width="316.42" height="82.099" viewBox="0 0 316.416 82.09937701679289">
<g>
<svg width="316.42" height="82.099" data-palette-color="#655C56" viewBox="0.65 -38.8 151.84 39.4">
<path class="undefined-text-0" d="m0.65-34.65h27.65v5.45h-10.65v29.2h-6.35v-29.2h-10.65v-5.45zm38.25 8.5v26.15h-6.05v-26.15h6.05zm0.65-7.65q0 1.7-1.1 2.7t-2.6 1q-1.55 0-2.65-1t-1.1-2.7q0-1.75 1.1-2.75t2.65-1q1.5 0 2.6 1t1.1 2.75zm13.1-5v22.85q1.15-1.2 2.45-2.58 1.3-1.37 2.55-2.75 1.25-1.37 2.37-2.65 1.13-1.27 1.93-2.22h7.14q-2.5 2.8-5.27 5.8t-5.57 5.85q1.5 1.25 3.15 3.02 1.65 1.78 3.19 3.78 1.56 2 2.91 4 1.34 2 2.25 3.7h-7q-0.9-1.55-2.08-3.25-1.17-1.7-2.52-3.3t-2.75-3.03q-1.4-1.42-2.75-2.42v12h-6.05v-37.8l6.05-1zm27.54 0v22.85q1.15-1.2 2.45-2.58 1.3-1.37 2.55-2.75 1.25-1.37 2.38-2.65 1.12-1.27 1.92-2.22h7.15q-2.5 2.8-5.27 5.8-2.78 3-5.58 5.85 1.5 1.25 3.15 3.02 1.65 1.78 3.2 3.78t2.9 4 2.25 3.7h-7q-0.9-1.55-2.07-3.25-1.18-1.7-2.53-3.3t-2.75-3.03q-1.4-1.42-2.75-2.42v12h-6.05v-37.8l6.05-1zm27.6 12.65v26.15h-6.05v-26.15h6.05zm0.65-7.65q0 1.7-1.1 2.7t-2.6 1q-1.55 0-2.65-1t-1.1-2.7q0-1.75 1.1-2.75t2.65-1q1.5 0 2.6 1t1.1 2.75zm6.75 23.4v-22.65l6.05-1v7.9h9.3v5.05h-9.3v10.65q0 3.15 1 4.5t3.4 1.35q1.65 0 2.92-0.35 1.28-0.35 2.03-0.65l1 4.8q-1.05 0.45-2.75 0.93-1.7 0.47-4 0.47-2.8 0-4.68-0.75-1.87-0.75-2.97-2.18-1.1-1.42-1.55-3.45-0.45-2.02-0.45-4.62zm20.9 0v-22.65l6.04-1v7.9h9.31v5.05h-9.31v10.65q0 3.15 1 4.5t3.4 1.35q1.66 0 2.93-0.35t2.02-0.65l1.01 4.8q-1.05 0.45-2.76 0.93-1.7 0.47-4 0.47-2.79 0-4.67-0.75-1.87-0.75-2.97-2.18-1.11-1.42-1.56-3.45-0.44-2.02-0.44-4.62z" fill="#655C56" data-fill-palette-color="primary"/>
</svg>
</g>
</svg>
</svg>
</svg>
</svg>
</svg>
</svg>
</g>
<path d="m0 247.2v-247.2h395.52v247.2zm388.12-7.404v-232.39h-380.71v232.39z" fill="#655C56" data-fill-palette-color="tertiary"/>
</svg>
</svg>
<rect width="395.52" height="247.2" fill="none" visibility="hidden"/>
</g>
</svg>
</g>
</svg>